<svg width="82" height="75" viewBox="0 0 82 75" fill="none" xmlns="http://www.w3.org/2000/svg">
<path d="M77.2232 39.0858L77.0418 39.4304L77.1412 39.8069C79.1637 47.4633 80.553 54.0775 80.8813 59.4013C81.2121 64.7658 80.448 68.5786 78.4408 70.8726C76.4849 73.1079 73.0899 74.1745 67.418 73.3982C61.752 72.6228 54.0459 70.0321 43.8007 65.2702L43.6002 65.1771H43.3792C36.5595 65.1771 30.6896 65.6026 25.71 65.9636C24.8224 66.0279 23.963 66.0902 23.1316 66.1477C17.5844 66.5311 13.3911 66.6866 10.2138 65.9067C8.65172 65.5233 7.37212 64.9205 6.31505 64.0293C5.25846 63.1385 4.37536 61.9183 3.66604 60.2294C2.25731 56.875 1.57287 51.7724 1.5476 44.0507C9.07814 37.292 12.2837 31.6587 13.5767 26.8895C14.5387 23.3414 14.4198 20.2436 14.3252 17.7762C14.293 16.9365 14.2635 16.1697 14.2805 15.4831C14.3148 14.0933 14.5199 13.017 15.1045 12.0946C15.687 11.1754 16.7284 10.2825 18.6863 9.4403C22.6586 7.73171 29.9893 6.39938 43.4649 5.2402L43.6082 5.22787L43.7422 5.17566C54.7864 0.87273 62.6494 0.29762 68.1502 1.8509C73.5956 3.3885 76.8744 7.05467 78.6985 11.6321C80.5368 16.2453 80.8841 21.769 80.3956 26.8577C79.9066 31.9519 78.5929 36.4833 77.2232 39.0858Z" fill="#4A5DC3" fill-opacity="0.3" stroke="#4A5DC3" stroke-width="2"/>
</svg>
