<svg width="45" height="45" viewBox="0 0 45 45" fill="none" xmlns="http://www.w3.org/2000/svg">
<path d="M29.6535 31.7069C29.2994 31.7069 29.0124 31.9939 29.0124 32.3481V42.3721C29.0124 43.1141 28.4087 43.7178 27.6666 43.7178H4.66309C3.92103 43.7178 3.31739 43.1141 3.31739 42.3721V2.62802C3.31739 1.88596 3.92103 1.28224 4.66309 1.28224H27.6666C28.4087 1.28224 29.0124 1.88596 29.0124 2.62802V8.84452C29.0124 9.19863 29.2994 9.48568 29.6535 9.48568C30.0076 9.48568 30.2945 9.19863 30.2945 8.84452V2.62802C30.2946 1.17896 29.1158 0 27.6666 0H4.66309C3.21403 0 2.03516 1.17896 2.03516 2.62802V42.372C2.03516 43.821 3.21403 45 4.66309 45H27.6666C29.1158 45 30.2946 43.821 30.2946 42.372V32.348C30.2946 31.9939 30.0076 31.7069 29.6535 31.7069Z" fill="white"/>
<path d="M16.1672 38.5848C14.871 38.5849 13.8164 39.6394 13.8164 40.9356C13.8164 42.2319 14.871 43.2864 16.1672 43.2864C17.4634 43.2864 18.518 42.2319 18.518 40.9356C18.518 39.6394 17.4634 38.5848 16.1672 38.5848ZM16.1671 42.0042C15.5779 42.0042 15.0986 41.5249 15.0986 40.9356C15.0986 40.3464 15.5779 39.8671 16.1671 39.8671C16.7564 39.8672 17.2357 40.3465 17.2357 40.9356C17.2357 41.5249 16.7563 42.0042 16.1671 42.0042Z" fill="white"/>
<path d="M25.4221 14.3481C22.0101 14.3481 19.2344 17.1239 19.2344 20.5358C19.2344 23.9477 22.0101 26.7235 25.4221 26.7235C28.834 26.7235 31.6097 23.9477 31.6097 20.5358C31.6097 17.1239 28.8341 14.3481 25.4221 14.3481ZM25.4221 25.4413C22.7171 25.4413 20.5166 23.2407 20.5166 20.5359C20.5166 17.8311 22.7172 15.6305 25.4221 15.6305C28.1269 15.6305 30.3275 17.8311 30.3275 20.5359C30.3275 23.2407 28.127 25.4413 25.4221 25.4413Z" fill="white"/>
<path d="M27.0014 31.7068C26.6473 31.7068 26.3603 31.9938 26.3603 32.3479V36.6382C26.3603 36.7376 26.2795 36.8184 26.18 36.8184H6.15399C6.05459 36.8184 5.97364 36.7376 5.97364 36.6382V7.26994H26.3601V8.8445C26.3602 9.19861 26.6472 9.48558 27.0013 9.48558C27.3554 9.48558 27.6424 9.19853 27.6424 8.84441V3.97861C27.6424 3.17213 26.9863 2.51611 26.1799 2.51611H6.15399C5.34751 2.51611 4.69141 3.17222 4.69141 3.97861V36.6382C4.69141 37.4445 5.34751 38.1007 6.15399 38.1007H26.18C26.9864 38.1007 27.6425 37.4445 27.6425 36.6382V32.3479C27.6425 31.9938 27.3555 31.7068 27.0014 31.7068ZM5.97373 3.97861C5.97373 3.89169 6.03569 3.81883 6.11778 3.80204C6.12947 3.79967 6.14169 3.79835 6.15408 3.79835H26.18C26.1924 3.79835 26.2046 3.79958 26.2163 3.80204C26.2983 3.81892 26.3603 3.89169 26.3603 3.97861V5.98771H5.97373V3.97861Z" fill="white"/>
<path d="M40.8408 10.2602H16.8096V8.92949C16.8096 8.57538 16.5226 8.28833 16.1684 8.28833C15.8143 8.28833 15.5273 8.57538 15.5273 9.28105V32.0583C15.5273 32.0609 15.8143 32.3479 16.1684 32.3479C16.5225 32.3479 16.8096 32.0609 16.8096 31.7068V30.8114H40.8407C42.0113 30.8114 42.9636 29.8591 42.9636 28.6886V12.3832C42.9636 11.2125 42.0113 10.2602 40.8408 10.2602ZM16.8096 13.6983H37.2397C37.7534 14.8371 38.6521 15.7448 39.7854 16.2694V24.8024C38.652 25.3271 37.7534 26.2346 37.2397 27.3735H16.8096V13.6983ZM41.6814 28.6886C41.6814 29.1522 41.3043 29.5292 40.8407 29.5292H16.8096V28.6557H37.3322C37.7889 28.6557 38.1996 28.386 38.3786 27.9687C38.7694 27.0572 39.4842 26.3352 40.3914 25.9355C40.8022 25.7546 41.0677 25.3457 41.0677 24.8938V16.1778C41.0677 15.7261 40.8023 15.3172 40.3915 15.1362H40.3914C39.4842 14.7365 38.7694 14.0145 38.3786 13.1032C38.1999 12.6858 37.7891 12.416 37.3322 12.416H16.8096V11.5424H40.8407C41.3043 11.5424 41.6814 11.9195 41.6814 12.3831V28.6886Z" fill="white"/>
<path d="M25.8435 20.0183V18.0227C26.5317 18.0718 26.7873 18.3864 27.0232 18.3864C27.3181 18.3864 27.4558 18.0128 27.4558 17.8261C27.4558 17.3444 26.512 17.138 25.8435 17.1183V16.8529C25.8435 16.7348 25.6961 16.6267 25.5486 16.6267C25.3815 16.6267 25.2635 16.7349 25.2635 16.8529V17.138C24.3296 17.2362 23.3957 17.7278 23.3957 18.9664C23.3957 20.2248 24.3788 20.5787 25.2635 20.8933V23.2035C24.2608 23.1249 23.9954 22.4367 23.6709 22.4367C23.4252 22.4367 23.2188 22.7611 23.2188 22.9971C23.2188 23.4788 24.0445 24.1375 25.2635 24.1572V24.4618C25.2635 24.5799 25.3815 24.688 25.5486 24.688C25.696 24.688 25.8435 24.5798 25.8435 24.4618V24.1276C26.9052 23.9802 27.6327 23.3117 27.6327 22.1025C27.6327 20.7655 26.6988 20.3329 25.8435 20.0183ZM25.3225 19.8316C24.8015 19.635 24.3788 19.4286 24.3787 18.8682C24.3787 18.357 24.772 18.1113 25.3225 18.0425V19.8316ZM25.7845 23.184V21.1097C26.2663 21.316 26.6496 21.5913 26.6496 22.2108C26.6496 22.7711 26.3154 23.0857 25.7845 23.184Z" fill="white"/>
</svg>
