<svg width="45" height="45" viewBox="0 0 45 45" fill="none" xmlns="http://www.w3.org/2000/svg">
<g clip-path="url(#clip0)">
<path d="M42.8539 26.3579H42.1805V20.2921C42.1805 19.3318 41.7025 18.4815 40.9726 17.9649V17.139C40.9726 15.941 39.998 14.9663 38.7999 14.9663H38.2971L40.2209 12.1433C40.8658 11.1971 40.6206 9.90253 39.6744 9.25759L26.6199 0.361296C26.1615 0.0488448 25.609 -0.0664677 25.0638 0.0369796C24.5188 0.140251 24.0465 0.449538 23.7342 0.907976L12.4665 17.4422H9.331L10.0875 9.78431C10.096 9.69801 10.1521 9.62321 10.2303 9.59377C11.2049 9.2263 12.0495 8.54005 12.6085 7.66149C12.6526 7.59232 12.7356 7.55277 12.8216 7.56147L17.7395 8.04733C18.0921 8.08152 18.4058 7.82471 18.4406 7.47226C18.4754 7.11982 18.218 6.80596 17.8655 6.77116L12.9476 6.2853C12.3768 6.2294 11.8324 6.49246 11.5265 6.97304C11.1155 7.61904 10.4945 8.12353 9.77792 8.39371C9.23853 8.59709 8.86816 9.08154 8.81121 9.65819L8.04234 17.4421H7.2247L8.42106 5.33046C8.46413 4.89452 8.85322 4.57425 9.28969 4.61793L19.2278 5.59967C19.5803 5.63368 19.8941 5.37704 19.9289 5.0246C19.9637 4.67216 19.7063 4.3583 19.3539 4.32349L9.41572 3.34176C8.27631 3.22934 7.25739 4.06474 7.1448 5.20433L6.18047 14.9663H4.53823C3.34028 14.9663 2.36558 15.941 2.36558 17.139V17.7024C1.38551 18.1536 0.703125 19.1443 0.703125 20.2921V42.15C0.703125 43.7215 1.98158 45 3.55315 45H39.3305C40.902 45 42.1805 43.7215 42.1805 42.15V36.0844H42.8539C43.6488 36.0844 44.2954 35.4377 44.2954 34.643V27.7993C44.2955 27.0045 43.6488 26.3579 42.8539 26.3579ZM38.7999 16.2488C39.2909 16.2488 39.6902 16.6481 39.6902 17.1391V17.4658C39.5722 17.4508 39.4524 17.4423 39.3305 17.4423H36.6099L37.4231 16.2488H38.7999ZM24.7939 1.63009C24.9134 1.45474 25.094 1.33644 25.3025 1.29689C25.3523 1.28749 25.4023 1.28274 25.452 1.28274C25.6099 1.28274 25.7643 1.33003 25.8977 1.42091L38.9522 10.3172C39.3141 10.5639 39.408 11.0591 39.1613 11.421L35.0581 17.442H34.0734L36.0851 14.4901C36.4113 14.0113 36.4382 13.4021 36.155 12.8999C35.7787 12.2329 35.6261 11.4474 35.7254 10.6881C35.7993 10.1232 35.5507 9.5718 35.0768 9.24889L28.3094 4.63709C27.8354 4.31409 27.2312 4.28447 26.7325 4.55983C26.0624 4.92985 25.2755 5.07513 24.517 4.96896C23.9545 4.89004 23.384 5.14404 23.0626 5.61557L15.0031 17.4421H14.0184L24.7939 1.63009ZM25.0763 12.5189C22.2839 12.5189 19.9917 14.6963 19.8049 17.4421H16.5548L24.1221 6.33777C24.1222 6.33777 24.1222 6.33777 24.1222 6.33777C24.1652 6.27458 24.2365 6.23696 24.3097 6.23696C24.3194 6.23696 24.3292 6.23766 24.3389 6.23898C25.3706 6.3833 26.4407 6.1859 27.3523 5.68255C27.424 5.64282 27.5161 5.64853 27.5871 5.69687L34.3546 10.3088C34.4254 10.3571 34.4644 10.4408 34.4538 10.522C34.3187 11.5546 34.5263 12.6228 35.0381 13.53C35.0792 13.6029 35.0742 13.6962 35.0255 13.7679L32.5216 17.442H30.3478C30.1609 14.6963 27.8688 12.5189 25.0763 12.5189ZM29.0619 17.4422H21.0907C21.2744 15.4041 22.9912 13.8014 25.0763 13.8014C27.1614 13.8014 28.8783 15.4041 29.0619 17.4422ZM3.64799 17.139C3.64799 16.648 4.04728 16.2487 4.53823 16.2487H6.05382L5.93596 17.4421H3.64799V17.139ZM1.98554 20.2921C1.98554 19.4278 2.68875 18.7246 3.55315 18.7246H39.3305C40.1949 18.7246 40.8981 19.4278 40.8981 20.2921V22.0713H1.98554V20.2921ZM40.8981 42.15C40.8981 43.0144 40.1949 43.7176 39.3305 43.7176H3.55315C2.68875 43.7176 1.98554 43.0144 1.98554 42.15V40.3708H5.44333C5.79753 40.3708 6.08449 40.0837 6.08449 39.7296C6.08449 39.3755 5.79744 39.0885 5.44333 39.0885H1.98554V23.3537H40.8981V26.3579H34.8014H34.8013C32.8804 26.3579 31.2165 27.4776 30.4268 29.0984C30.4241 29.1038 30.4211 29.1091 30.4184 29.1145C30.4117 29.1283 30.4059 29.1427 30.3994 29.1566C30.3054 29.3563 30.2237 29.5631 30.1571 29.7765C30.1569 29.7771 30.1568 29.7777 30.1566 29.7783C30.0146 30.2344 29.9381 30.7189 29.9381 31.2211C29.9381 33.9027 32.1197 36.0844 34.8013 36.0844H34.8013H40.898V39.0885H9.54905C9.19485 39.0885 8.90789 39.3755 8.90789 39.7296C8.90789 40.0837 9.19494 40.3708 9.54905 40.3708H40.8981V42.15ZM43.0131 34.6429C43.0131 34.7306 42.9417 34.8019 42.8539 34.8019H34.8015C33.4441 34.8019 32.2605 34.0427 31.6535 32.9265C31.6259 32.8758 31.5995 32.8243 31.5743 32.7722C31.5239 32.6679 31.4785 32.5607 31.4383 32.451C31.2975 32.0673 31.2207 31.653 31.2207 31.2211C31.2207 30.7892 31.2976 30.3749 31.4383 29.9912C31.4786 29.8816 31.524 29.7744 31.5743 29.67C31.5995 29.6179 31.6259 29.5664 31.6535 29.5157C32.2605 28.3996 33.4441 27.6403 34.8015 27.6403H42.8539C42.9416 27.6403 43.0131 27.7116 43.0131 27.7993V34.6429Z" fill="white"/>
<path d="M34.9531 28.6196C33.5186 28.6196 32.3516 29.7867 32.3516 31.2212C32.3516 32.6557 33.5186 33.8227 34.9531 33.8227C36.3877 33.8227 37.5547 32.6557 37.5547 31.2212C37.5547 29.7867 36.3877 28.6196 34.9531 28.6196ZM34.9531 32.5403C34.2257 32.5403 33.634 31.9485 33.634 31.2212C33.634 30.4939 34.2257 29.902 34.9531 29.902C35.6805 29.902 36.2723 30.4938 36.2723 31.2212C36.2723 31.9486 35.6805 32.5403 34.9531 32.5403Z" fill="white"/>
</g>
<defs>
<clipPath id="clip0">
<rect width="45" height="45" fill="white"/>
</clipPath>
</defs>
</svg>
