<svg width="562" height="31" viewBox="0 0 562 31" fill="none" xmlns="http://www.w3.org/2000/svg">
<g clip-path="url(#clip0)">
<path fill-rule="evenodd" clip-rule="evenodd" d="M159.332 20.2895V20.2294C159.332 14.4799 163.764 9.60709 169.997 9.60709C173.099 9.60709 175.166 10.3414 177.056 11.6918C177.411 11.9563 177.795 12.4542 177.795 13.1585C177.795 14.1273 176.998 14.9488 175.994 14.9488C175.521 14.9488 175.167 14.7444 174.871 14.5371C173.541 13.5702 172.095 12.9231 169.849 12.9231C166.039 12.9231 163.143 16.2401 163.143 20.1713V20.2294C163.143 24.4561 165.95 27.5658 170.174 27.5658C172.124 27.5658 173.896 26.9497 175.167 26.0109V22.1679H171.089C170.203 22.1679 169.465 21.4917 169.465 20.6121C169.465 19.7315 170.203 19.0272 171.09 19.0272H176.851C177.884 19.0272 178.682 19.8187 178.682 20.8475V26.3335C178.682 27.3604 178.269 28.0947 177.411 28.6227C175.638 29.7968 173.157 30.8527 170.056 30.8527C163.586 30.8527 159.332 26.2754 159.332 20.2895ZM181.939 10.694C181.937 10.4628 181.981 10.2333 182.069 10.0191C182.157 9.8049 182.287 9.61017 182.452 9.44627C182.617 9.28237 182.813 9.15256 183.029 9.06442C183.245 8.97627 183.477 8.93155 183.711 8.93284C184.715 8.93284 185.514 9.72528 185.514 10.694V28.8872C185.514 29.885 184.715 30.6474 183.712 30.6474C183.478 30.6488 183.246 30.6042 183.03 30.5162C182.814 30.4281 182.618 30.2984 182.453 30.1346C182.288 29.9708 182.157 29.7762 182.069 29.562C181.981 29.3478 181.937 29.1184 181.939 28.8872V10.694ZM201.339 22.8422V22.784C201.339 20.0541 199.36 17.795 196.554 17.795C193.688 17.795 191.857 20.025 191.857 22.7249V22.7831C191.857 25.483 193.836 27.7421 196.612 27.7421C199.507 27.7421 201.339 25.512 201.339 22.8422ZM188.282 22.8422V22.784C188.282 18.352 191.826 14.6843 196.613 14.6843C201.398 14.6843 204.914 18.2929 204.914 22.7249V22.7831C204.914 27.1851 201.369 30.8527 196.554 30.8527C191.796 30.8527 188.282 27.2442 188.282 22.8422ZM213.838 30.7946H213.662C212.686 30.7946 212.036 30.1775 211.623 29.2378L206.424 17.4133C206.334 17.1488 206.217 16.8562 206.217 16.5337C206.217 15.6521 207.015 14.8316 207.989 14.8316C208.964 14.8316 209.467 15.3876 209.762 16.1229L213.779 26.3917L217.855 16.0648C218.121 15.4487 218.595 14.8316 219.539 14.8316C220.514 14.8316 221.282 15.5649 221.282 16.5337C221.282 16.8562 221.164 17.2089 221.076 17.3842L215.876 29.2369C215.462 30.1475 214.812 30.7937 213.837 30.7937L213.838 30.7946ZM235.642 22.8422V22.784C235.642 20.0541 233.664 17.795 230.857 17.795C227.991 17.795 226.16 20.025 226.16 22.7249V22.7831C226.16 25.483 228.139 27.7421 230.918 27.7421C233.81 27.7421 235.642 25.512 235.642 22.8422ZM222.586 22.8422V22.784C222.586 18.352 226.131 14.6843 230.917 14.6843C235.702 14.6843 239.217 18.2929 239.217 22.7249V22.7831C239.217 27.1851 235.673 30.8527 230.857 30.8527C226.101 30.8527 222.586 27.2442 222.586 22.8422Z" fill="white"/>
<mask id="mask0" mask-type="alpha" maskUnits="userSpaceOnUse" x="238" y="0" width="15" height="18">
<path d="M238.177 0.620003H252.214V17.7601H238.176V0.620003H238.177Z" fill="white"/>
</mask>
<g mask="url(#mask0)">
<path fill-rule="evenodd" clip-rule="evenodd" d="M248.084 9.64969L247.888 9.92094L245.195 13.6962L242.505 9.92772L242.308 9.65453C241.924 9.12743 241.694 8.50578 241.644 7.85793C241.594 7.21007 241.725 6.56108 242.024 5.98229C242.322 5.4035 242.776 4.9173 243.335 4.57715C243.895 4.23699 244.538 4.05605 245.195 4.05419C245.85 4.05719 246.493 4.23862 247.051 4.5786C247.609 4.91859 248.062 5.40403 248.36 5.98179C248.659 6.55955 248.79 7.20735 248.741 7.85429C248.692 8.50122 248.465 9.12236 248.083 9.64969H248.084ZM245.196 0.619003C241.323 0.619003 238.176 3.74807 238.176 7.59303C238.176 9.05682 238.634 10.4625 239.498 11.6569L239.684 11.9146L243.341 17.0374C243.341 17.0374 243.786 17.761 244.758 17.761H245.631C246.605 17.761 247.049 17.0374 247.049 17.0374L250.702 11.9137L250.888 11.656C251.751 10.4729 252.214 9.05077 252.212 7.59207C252.212 3.7471 249.063 0.619003 245.193 0.619003" fill="#F2CC38"/>
</g>
<path fill-rule="evenodd" clip-rule="evenodd" d="M243.223 20.9056V20.8921C243.223 19.8497 244.056 18.9875 245.181 18.9875C246.306 18.9875 247.133 19.8361 247.133 20.8785V20.8921C247.133 21.9257 246.299 22.7879 245.167 22.7879C244.051 22.7879 243.223 21.9403 243.223 20.9056Z" fill="#F2CC38"/>
</g>
<g clip-path="url(#clip1)">
<path d="M131.588 30.9065C136.288 30.9065 138.974 28.6497 138.974 25.6412C138.974 23.4787 137.439 21.8801 134.082 21.1284L130.63 20.4702C128.615 20.0944 127.944 19.7186 127.944 18.966C127.944 18.0255 128.902 17.4618 130.725 17.4618C132.643 17.4618 134.082 17.932 134.562 19.7177H138.686C138.494 16.4268 136 14.1718 131.013 14.1718C126.697 14.1718 123.724 15.8631 123.724 19.2483C123.724 21.5987 125.355 23.1029 128.902 23.8546L132.836 24.7007C134.37 24.983 134.754 25.3588 134.754 26.017C134.754 27.051 133.602 27.6157 131.684 27.6157C129.287 27.6157 127.944 27.1454 127.464 25.3588H123.34C123.915 28.7432 126.409 30.9065 131.588 30.9065ZM122.093 30.5307H117.681C114.9 30.5307 113.365 28.8376 113.365 26.6752V18.2143H110.296V14.6403H113.462V10.1284H117.586V14.6412H122.189V18.2134H117.586V25.6412C117.586 26.4872 118.161 26.8631 119.12 26.8631H122.189V30.5297H122.093V30.5307ZM104.446 22.5382C104.446 19.8121 102.24 17.6497 99.5546 17.6497C96.8689 17.6497 94.663 19.8121 94.663 22.5382C94.663 25.2653 96.8689 27.4277 99.5546 27.4277C102.24 27.4277 104.446 25.2644 104.446 22.5382ZM90.5391 22.5382C90.5391 17.932 94.3759 14.1709 99.1712 14.1709C101.089 14.1709 102.912 14.8291 104.35 16.051V14.6412H108.474V30.5297H104.35V29.1208C102.912 30.3405 101.072 31.0082 99.1712 31C94.3759 30.9065 90.54 27.1454 90.54 22.5392L90.5391 22.5382Z" fill="#5FB709"/>
<path d="M64.2589 17.5553C62.1492 17.5553 60.711 19.1539 60.711 21.5978V30.5298H57.5456V14.8291H60.711V16.7092C61.4778 15.4872 62.8206 14.6412 64.4515 14.6412H65.6017V17.5562H64.2589V17.5553ZM42.4883 21.2219H52.1743C51.6955 18.8716 49.6812 17.1794 47.2836 17.1794C44.9813 17.1794 43.0634 18.8716 42.4883 21.2219ZM47.3789 14.4532C51.9826 14.4532 55.3396 17.932 55.3396 22.6327V23.6667H42.2956C42.7753 26.2058 44.8859 28.1794 47.5706 28.1794C49.3941 28.1794 51.0241 27.4278 52.1743 25.9226L54.4765 27.6157C52.8457 29.6837 50.448 31 47.5706 31C42.7753 31 39.0348 27.4268 39.0348 22.8206C39.2265 18.2134 42.7753 14.4532 47.3789 14.4532ZM28.9645 28.085C30.4394 28.084 31.8537 27.5093 32.8967 26.487C33.9398 25.4648 34.5263 24.0785 34.5275 22.6327C34.5275 19.5297 32.0336 17.1794 28.9645 17.1794C25.9908 17.1794 23.4978 19.5297 23.4978 22.6327C23.4978 25.6412 25.9917 28.085 28.9645 28.085ZM20.4287 9H23.5941V16.8036C25.0323 15.3928 27.0466 14.4532 29.2516 14.4532C33.9515 14.4532 37.692 18.1199 37.692 22.6327C37.692 27.1454 34.0478 30.8121 29.2525 30.8121C27.0456 30.8121 25.0323 29.8716 23.4978 28.4618V30.4353H20.3324V9H20.4287ZM8.82382 27.9915C11.8929 27.9915 14.1942 25.7347 14.1942 22.2559V9H17.455V30.5298H14.1952V28.4618C12.6616 29.9651 10.6464 30.8121 8.34504 30.8121C3.64417 30.8121 0 27.4268 0 22.3503V9H3.26077V22.2559C3.45247 25.7347 5.75475 27.9915 8.82382 27.9915Z" fill="white"/>
<path d="M73.4688 9H88.9095V12.5723H77.5926V17.932H88.6215V21.4098H77.5936V26.8631H88.9104V30.5298H73.4688V9Z" fill="#5FB709"/>
</g>
<g clip-path="url(#clip2)">
<path d="M376.432 23.8C376.532 23.8 376.632 23.7 376.832 23.7C377.032 23.7 377.232 23.7 377.432 23.7C377.632 23.7 377.832 23.7 378.032 23.7C378.232 23.7 378.332 23.8 378.432 23.9C378.532 24 378.632 24.1 378.732 24.2C378.832 24.3 378.832 24.5 378.832 24.8V27.9C378.832 28.3 378.932 28.6 379.132 28.7C379.332 28.9 379.632 28.9 379.932 28.9C380.132 28.9 380.332 28.9 380.432 28.8C380.532 28.8 380.632 28.7 380.732 28.7V23.7C380.832 23.7 380.932 23.6 381.132 23.6C381.332 23.6 381.532 23.6 381.732 23.6C381.932 23.6 382.132 23.6 382.332 23.6C382.532 23.6 382.632 23.7 382.732 23.8C382.832 23.9 382.932 24 383.032 24.1C383.132 24.2 383.132 24.4 383.132 24.7V29C383.132 29.5 382.932 29.8 382.532 30.1C382.232 30.3 381.832 30.5 381.332 30.6C380.832 30.7 380.332 30.8 379.832 30.8C379.332 30.8 378.832 30.7 378.432 30.6C378.032 30.5 377.632 30.3 377.332 30.1C377.032 29.9 376.732 29.6 376.632 29.2C376.432 28.8 376.332 28.4 376.332 27.8L376.432 23.8ZM387.732 29.1C387.932 29.1 388.032 29.1 388.232 29C388.432 29 388.532 28.9 388.632 28.9V27.8L387.632 27.9C387.332 27.9 387.132 28 386.932 28.1C386.732 28.2 386.632 28.3 386.632 28.5C386.632 28.7 386.732 28.8 386.832 29C387.132 29 387.332 29.1 387.732 29.1ZM387.632 23.5C388.132 23.5 388.632 23.6 389.032 23.7C389.432 23.8 389.832 24 390.132 24.2C390.432 24.4 390.632 24.7 390.832 25C391.032 25.3 391.032 25.7 391.032 26.2V29.4C391.032 29.6 390.932 29.8 390.832 30C390.732 30.2 390.532 30.3 390.332 30.4C389.732 30.8 388.832 31 387.732 31C387.232 31 386.732 31 386.332 30.9C385.932 30.8 385.632 30.7 385.332 30.5C385.032 30.3 384.832 30.1 384.632 29.8C384.432 29.5 384.432 29.2 384.432 28.8C384.432 28.1 384.632 27.6 385.032 27.3C385.432 26.9 386.032 26.7 386.832 26.6L388.732 26.4V26.3C388.732 26 388.632 25.8 388.332 25.7C388.132 25.6 387.732 25.5 387.332 25.5C386.932 25.5 386.632 25.5 386.232 25.6C385.932 25.7 385.532 25.8 385.332 25.9C385.232 25.8 385.132 25.7 385.032 25.5C384.932 25.3 384.932 25.1 384.932 25C384.932 24.8 385.032 24.6 385.132 24.4C385.232 24.3 385.432 24.1 385.632 24C385.932 23.9 386.232 23.8 386.632 23.8C386.932 23.5 387.232 23.5 387.632 23.5Z" fill="#E91C4D"/>
<path d="M373.133 29.4C373.133 29 373.233 28.7 373.533 28.4C373.733 28.1 374.133 28 374.533 28C374.933 28 375.233 28.1 375.533 28.4C375.733 28.7 375.933 29 375.933 29.4C375.933 29.8 375.833 30.1 375.533 30.4C375.333 30.7 374.933 30.8 374.533 30.8C374.133 30.8 373.833 30.7 373.533 30.4C373.233 30.1 373.133 29.8 373.133 29.4Z" fill="#E91C4D"/>
<path d="M326.432 22.1C326.132 22.3 325.832 22.5 325.532 22.7C324.732 23.2 323.832 23.6 322.932 23.9C322.332 24.1 321.732 24.3 321.232 24.4C319.332 24.9 317.232 24.9 315.632 24.2C312.632 22.9 311.732 18.8 313.232 16.1C313.832 15.1 314.732 14.3 316.032 13.8C317.832 13 320.332 13.2 321.632 14.7C321.932 15 322.132 15.4 322.232 15.9V16.1L316.532 17.4C316.232 17.5 315.832 17.6 315.532 17.8C315.332 17.9 315.232 18.1 315.132 18.4C315.032 18.6 315.032 18.9 315.132 19.1C315.232 19.4 315.332 19.8 315.432 20.1C315.532 20.5 315.732 20.8 315.932 21.2C316.032 21.4 316.132 21.7 316.332 21.9L323.232 20.2L325.132 19.7C326.032 19.5 326.732 19.1 327.232 18.4C327.832 17.6 327.932 16.5 327.832 15.6C327.632 14.4 327.132 13.3 326.432 12.4C324.332 9.7 320.932 8.9 317.732 9.2C316.332 9.3 314.832 9.7 313.532 10.2C312.232 10.7 310.932 11.4 309.832 12.3C308.732 13.2 307.832 14.4 307.232 15.7C306.032 18.1 305.832 20.9 306.832 23.5C307.532 25.4 308.832 26.9 310.432 28.1C310.532 28 310.532 28 310.632 27.9C311.032 27.4 311.632 27.1 312.332 27.1C312.432 27.1 312.532 27.1 312.632 27.1C313.132 27.1 313.632 27.3 314.032 27.6C314.432 27.9 314.632 28.4 314.732 28.9C314.732 29 314.732 29.1 314.732 29.2C314.732 29.4 314.732 29.6 314.632 29.8C314.932 29.8 315.132 29.9 315.432 29.9C316.332 30 317.432 30 318.632 29.9C318.632 29.7 318.532 29.6 318.532 29.4C318.532 29.3 318.532 29.2 318.532 29C318.532 28.2 318.932 27.5 319.432 26.9C319.932 26.3 320.732 25.9 321.532 25.9C321.632 25.9 321.832 25.9 321.932 25.9C322.632 25.9 323.232 26.2 323.632 26.6C324.032 27 324.332 27.6 324.432 28.2C324.432 28.3 324.432 28.4 324.432 28.6V28.7C324.532 28.7 324.632 28.6 324.732 28.6C326.032 28.1 327.232 27.1 327.632 25.7C327.432 24.2 327.132 23.1 326.432 22.1Z" fill="#E91C4D"/>
<path d="M310.43 29.3C310.43 28.4 311.23 27.6 312.13 27.5C313.03 27.4 313.73 28.1 313.73 28.9C313.73 29.8 312.93 30.6 312.03 30.7C311.13 30.8 310.33 30.2 310.43 29.3Z" fill="#E91C4D"/>
<path d="M318.933 28.8C318.933 27.6 319.933 26.5 321.133 26.4C322.333 26.3 323.333 27.1 323.233 28.3C323.233 29.5 322.233 30.6 321.033 30.7C319.833 30.8 318.833 30 318.933 28.8Z" fill="#E91C4D"/>
<path d="M278.432 30.4L280.032 16.1L280.132 16C280.432 15.8 280.732 15.7 281.132 15.6C281.532 15.4 282.032 15.4 282.532 15.4C283.232 15.4 283.932 15.6 284.432 16C285.032 16.5 285.132 17.3 285.132 18L284.032 27.8C283.932 28.3 283.932 28.9 284.132 29.3C284.232 29.6 284.432 29.9 284.732 30.2C285.032 30.4 285.432 30.6 285.732 30.6C286.232 30.7 286.732 30.7 287.332 30.7C287.932 30.7 288.532 30.7 289.132 30.6C289.532 30.5 289.932 30.5 290.232 30.4L291.732 16.7C291.732 16.6 291.732 16.5 291.732 16.5V16.3L291.832 16.2C292.132 15.9 292.532 15.8 292.932 15.6C293.332 15.4 293.832 15.3 294.332 15.3C295.032 15.3 295.732 15.4 296.332 15.9C296.932 16.4 297.032 17.2 296.932 17.9L295.832 27.7C295.732 28.2 295.732 28.8 295.932 29.2C296.032 29.5 296.232 29.8 296.532 30.1C296.832 30.3 297.232 30.5 297.532 30.5C298.032 30.6 298.532 30.6 299.132 30.6C299.732 30.6 300.332 30.6 300.932 30.5C301.332 30.5 301.632 30.4 302.032 30.3L303.432 17.6C303.332 16.6 303.332 15.4 302.932 14.4C302.632 13.5 302.132 12.8 301.432 12.2C300.732 11.6 299.932 11.2 299.032 11C298.032 10.7 297.132 10.6 296.132 10.6C294.932 10.6 293.632 10.7 292.432 11.1C291.432 11.4 290.432 11.9 289.632 12.4L289.332 12.5L289.132 12.4C288.432 11.8 287.532 11.3 286.632 11C285.632 10.7 284.532 10.5 283.432 10.5C281.932 10.5 280.532 10.7 279.132 11.1C277.932 11.5 276.732 12 275.632 12.7C275.132 13 274.632 13.4 274.332 13.8C273.932 14.3 273.832 14.8 273.732 15.4L272.332 27.8C272.332 28.3 272.332 28.9 272.432 29.3C272.532 29.6 272.732 29.9 273.032 30.2C273.332 30.4 273.732 30.6 274.032 30.6C274.532 30.7 275.032 30.7 275.632 30.7C276.232 30.7 276.832 30.7 277.432 30.6C277.732 30.6 278.132 30.5 278.432 30.4Z" fill="#E91C4D"/>
<path d="M348.332 30.4L349.732 17.8C349.932 15.7 349.532 13.8 347.932 12.4C346.132 10.8 343.532 10.4 341.232 10.4C339.632 10.4 338.032 10.6 336.532 11C335.332 11.4 334.032 11.8 332.932 12.6C332.432 12.9 331.932 13.3 331.532 13.8C331.132 14.3 331.032 14.9 330.932 15.5L329.632 27.8C329.532 28.3 329.532 28.9 329.732 29.3C329.832 29.6 330.032 29.9 330.332 30.2C330.632 30.4 331.032 30.6 331.332 30.6C331.832 30.7 332.332 30.7 332.932 30.7C333.532 30.7 334.132 30.7 334.732 30.6C335.132 30.6 335.432 30.5 335.832 30.4L337.332 16.3C337.832 16 338.332 15.8 338.832 15.6C339.432 15.5 339.932 15.4 340.532 15.4C341.232 15.4 342.032 15.6 342.632 16.1C343.232 16.6 343.332 17.4 343.232 18.2L342.232 27.8C342.132 28.3 342.132 28.9 342.332 29.3C342.432 29.6 342.632 29.9 342.932 30.2C343.232 30.4 343.632 30.6 343.932 30.6C344.432 30.7 344.932 30.7 345.532 30.7C346.132 30.7 346.732 30.7 347.332 30.6C347.532 30.6 347.932 30.5 348.332 30.4Z" fill="#E91C4D"/>
<path d="M353.431 11L352.231 22.5C352.131 23.7 352.131 25.1 352.531 26.3C352.831 27.3 353.431 28.1 354.231 28.8C355.131 29.5 356.131 30 357.131 30.3C358.431 30.6 359.731 30.8 361.031 30.8C362.431 30.8 363.931 30.7 365.331 30.3C366.531 30 367.731 29.6 368.831 29C369.931 28.4 370.631 27.4 370.731 26.1L372.031 13.7C372.131 13.2 372.131 12.6 371.931 12.2C371.831 11.9 371.631 11.6 371.331 11.3C371.031 11.1 370.631 10.9 370.331 10.9C369.831 10.8 369.331 10.8 368.731 10.8C368.131 10.8 367.531 10.8 366.931 10.9C366.531 10.9 366.231 11 365.831 11.1L364.331 25.4C364.031 25.5 363.631 25.7 363.331 25.7C362.831 25.8 362.231 25.9 361.731 25.9C360.831 25.9 359.931 25.7 359.231 25.1C358.531 24.4 358.531 23.4 358.631 22.5L359.531 13.7C359.631 13.2 359.631 12.6 359.431 12.2C359.331 11.9 359.131 11.6 358.831 11.3C358.531 11.1 358.131 10.9 357.831 10.9C357.331 10.8 356.831 10.8 356.231 10.8C355.631 10.8 355.031 10.8 354.431 10.9C354.231 10.9 353.831 10.9 353.431 11Z" fill="#E91C4D"/>
</g>
<g clip-path="url(#clip3)">
<path d="M473.264 14.7591C473.264 11.2669 470.458 9 465.004 9H457.414L454.32 30.2903H460.125L461.273 22.4481H462.995L466.12 30.2903H472.435L468.385 21.5291C472.403 19.7217 473.264 17.363 473.264 14.7591ZM462.644 12.9517H464.303C466.28 12.9517 467.269 13.595 467.269 15.0961C467.269 16.7503 466.408 18.5883 463.792 18.5883H461.815L462.644 12.9517ZM485.204 30.2903H491.327L488.01 9H480.994L471.458 30.2903H477.517L479.08 25.9404H484.853L485.204 30.2903ZM480.515 21.8967L483.832 12.676L484.566 21.8967H480.515ZM492.442 30.2903H498.278L501.372 9H495.535L492.442 30.2903ZM504.944 30.2903H511.545L506.06 18.8027L514.065 9H507.942L500.096 18.9559L504.944 30.2903ZM529.653 9H515.78L512.686 30.2903H526.464L527.038 26.2773H519.096L519.798 21.4372H526.304L526.846 17.5161H520.34L521.01 13.013H528.441L529.653 9ZM547.694 9H530.663L530.057 13.3193H535.511L533.023 30.2903H538.827L541.315 13.3193H546.45L547.694 9ZM555.358 30.2903H561.482L558.165 9H551.148L541.613 30.2903H547.672L549.235 25.9404H555.007L555.358 30.2903ZM550.67 21.8967L553.987 12.676L554.72 21.8967H550.67Z" fill="white"/>
<path d="M416.734 10.0999C416.734 9.54544 417.18 9.09597 417.73 9.09597H442.385C446.162 9.09597 449.356 11.5498 449.356 15.3664C449.356 18.1421 447.639 20.9178 444.892 21.9586L449.028 30.63H440.768L437.681 22.9995V30.63C434.591 30.63 431.586 30.6307 428.582 30.6313L427.495 30.6315C424.95 30.6322 422.679 30.6326 419.969 30.6326C419.949 30.6326 419.93 30.6318 419.911 30.63H419.72C419.17 30.63 418.725 30.1805 418.725 29.6261C418.725 29.0716 419.17 28.6221 419.72 28.6221H435.621V23.3465C435.621 20.9178 438.711 20.2238 439.741 22.6525L442.385 28.6221H445.495L443.175 23.3465C442.881 22.7207 442.658 21.9844 442.881 21.3717C443.095 20.7834 443.661 20.4982 444.182 20.2356L444.205 20.2238C445.922 19.5299 447.296 17.7951 447.296 15.7133C447.296 12.9376 445.236 11.1038 442.489 11.1038H417.73C417.18 11.1038 416.734 10.6543 416.734 10.0999Z" fill="white"/>
<path d="M419.298 13.8467C418.756 13.8467 418.316 14.343 418.316 14.9552C418.316 15.5674 418.756 16.0637 419.298 16.0637H427.153C427.695 16.0637 428.135 15.5674 428.135 14.9552C428.135 14.343 427.695 13.8467 427.153 13.8467H419.298Z" fill="white"/>
<path d="M411.031 19.7059C411.031 19.0937 411.466 18.5974 412.003 18.5974H421.778C422.315 18.5974 422.75 19.0937 422.75 19.7059C422.75 20.3181 422.315 20.8144 421.778 20.8144H412.003C411.466 20.8144 411.031 20.3181 411.031 19.7059Z" fill="white"/>
<path d="M424.989 18.5974C424.452 18.5974 424.016 19.0937 424.016 19.7059C424.016 20.3181 424.452 20.8144 424.989 20.8144H432.543C433.081 20.8144 433.517 20.3181 433.517 19.7059C433.517 19.0937 433.081 18.5974 432.543 18.5974H424.989Z" fill="white"/>
<path d="M414.832 24.4567C414.832 23.8445 415.283 23.3482 415.839 23.3482H429.028C429.584 23.3482 430.034 23.8445 430.034 24.4567C430.034 25.0689 429.584 25.5652 429.028 25.5652H415.839C415.283 25.5652 414.832 25.0689 414.832 24.4567Z" fill="white"/>
<path d="M430.035 14.9552C430.035 14.343 430.476 13.8467 431.02 13.8467H432.851C433.395 13.8467 433.836 14.343 433.836 14.9552C433.836 15.5674 433.395 16.0637 432.851 16.0637H431.02C430.476 16.0637 430.035 15.5674 430.035 14.9552Z" fill="white"/>
<path d="M435.183 13.8467C434.614 13.8467 434.152 14.343 434.152 14.9552C434.152 15.5674 434.614 16.0637 435.183 16.0637H441.356C441.925 16.0637 442.387 15.5674 442.387 14.9552C442.387 14.343 441.925 13.8467 441.356 13.8467H435.183Z" fill="white"/>
</g>
<defs>
<clipPath id="clip0">
<rect x="159.332" width="93" height="31" fill="white"/>
</clipPath>
<clipPath id="clip1">
<rect y="9" width="139.333" height="22" fill="white"/>
</clipPath>
<clipPath id="clip2">
<rect x="272.332" y="9" width="118.7" height="21.9" fill="white"/>
</clipPath>
<clipPath id="clip3">
<rect x="411.031" y="9" width="150.452" height="22" fill="white"/>
</clipPath>
</defs>
</svg>
