<svg width="311" height="395" viewBox="0 0 311 395" fill="none" xmlns="http://www.w3.org/2000/svg">
<path d="M78.2544 292.407L78.3904 292.064L78.2706 291.715C74.5737 280.933 67.5376 266.816 59.457 251.322C57.3701 247.32 55.2126 243.225 53.0225 239.068C46.716 227.098 40.1387 214.614 34.196 202.368C26.1874 185.867 19.3682 169.871 15.9399 156.246C12.4927 142.545 12.565 131.589 17.8466 124.842C19.9444 122.162 20.4658 117.975 20.1376 113.022C19.8059 108.016 18.5846 101.972 16.9244 95.3515C15.4305 89.3938 13.5696 82.9251 11.6567 76.2758C11.4419 75.5291 11.2264 74.7802 11.0108 74.0295C8.87204 66.5843 6.71056 58.954 4.94473 51.5493C3.17846 44.1427 1.81462 36.9882 1.26453 30.4977C0.713618 23.9973 0.985369 18.2301 2.43922 13.5663C3.88412 8.93123 6.4858 5.4097 10.6235 3.29158C14.7936 1.15692 20.6524 0.381475 28.7237 1.53078C61.1257 6.14461 77.4451 9.08245 87.3917 10.873L87.6838 10.9256C97.5697 12.7052 101.18 13.3444 108.329 13.3498C111.922 14.0042 117.245 13.9904 123.677 13.643C129.837 13.3103 137.108 12.6648 145.007 11.9637C145.458 11.9236 145.911 11.8834 146.366 11.8431C163.237 10.3469 182.835 8.66386 200.865 9.18049C218.941 9.69841 235.223 12.4263 245.601 19.585C250.756 23.1413 254.439 27.7806 256.186 33.8018C257.937 39.8398 257.77 47.3634 255.04 56.7199C249.449 75.8857 250.145 98.0355 254.278 120.742C258.413 143.458 266.003 166.806 274.271 188.405C281.22 206.558 288.659 223.503 294.94 237.808C296.132 240.523 297.282 243.143 298.379 245.658C301.822 253.549 304.737 260.397 306.792 265.923C308.865 271.499 310 275.577 310 278C310 282.139 307.508 287.114 302.769 292.731C298.058 298.314 291.256 304.382 282.929 310.69C266.281 323.3 243.67 336.769 219.877 349.129C196.089 361.485 171.151 372.715 149.867 380.853C139.224 384.922 129.505 388.214 121.308 390.487C113.088 392.767 106.471 394 102 394C92.7984 394 84.4922 393.351 77.7503 390.992C71.0523 388.647 65.9286 384.628 62.9901 377.85C60.029 371.019 59.2327 361.264 61.507 347.357C63.7793 333.463 69.0995 315.527 78.2544 292.407Z" fill="#5FB709" fill-opacity="0.15" stroke="#5FB709" stroke-width="2"/>
</svg>
