<svg width="335" height="259" viewBox="0 0 335 259" fill="none" xmlns="http://www.w3.org/2000/svg">
<path d="M115.799 62.0168C116.429 62.7932 116.43 62.793 116.43 62.7925L116.433 62.7898L116.447 62.7786L116.504 62.7332C116.554 62.6928 116.629 62.6322 116.729 62.5523C116.929 62.3924 117.227 62.1549 117.618 61.846C118.401 61.2282 119.557 60.3249 121.049 59.1854C124.031 56.9061 128.352 53.6823 133.701 49.908C144.402 42.3577 159.206 32.6123 175.629 23.8196C192.061 15.0229 210.071 7.20312 227.191 3.47252C244.326 -0.261056 260.425 0.131056 273.167 7.56427C286.245 15.1938 293.979 20.0288 298.848 24.6989C303.638 29.2922 305.662 33.7341 307.187 40.7098C307.925 44.086 308.542 48.0478 309.293 52.8752C311.676 68.1783 315.414 92.1798 328.657 133.796C337.266 160.852 332.693 185.021 320.383 204.691C308.057 224.387 287.946 239.609 265.457 248.636C242.966 257.663 218.18 260.461 196.553 255.408C174.952 250.36 156.51 237.488 146.555 215.128C126.288 169.606 106.849 154.105 86.6757 147.46C78.3901 144.731 69.9998 143.506 61.5107 142.266C59.7462 142.009 57.9774 141.75 56.2044 141.478C45.8689 139.889 35.3003 137.809 24.2441 132.589C13.1059 127.33 6.52431 122.189 3.45471 117.216C1.93302 114.751 1.27789 112.333 1.34444 109.944C1.4112 107.547 2.20649 105.11 3.69383 102.618C6.68517 97.6072 12.3998 92.5023 20.1725 87.3013C27.9249 82.1138 37.6284 76.8928 48.4891 71.6177L48.5351 71.5954L48.5786 71.5685C49.6581 70.9002 51.5038 70.2296 54.005 69.5843C56.4809 68.9455 59.5118 68.3526 62.8994 67.8062C69.6731 66.7137 77.8112 65.8166 85.6624 65.106C93.5105 64.3957 101.057 63.873 106.643 63.5279C109.435 63.3554 111.737 63.2273 113.34 63.1424C114.141 63.0999 114.768 63.0682 115.194 63.0472C115.408 63.0366 115.57 63.0288 115.68 63.0235L115.804 63.0177L115.835 63.0162L115.843 63.0158L115.845 63.0158C115.845 63.0157 115.845 63.0157 115.799 62.0168ZM115.799 62.0168L116.429 62.7932L116.174 63.0005L115.845 63.0157L115.799 62.0168Z" fill="#5FB709" fill-opacity="0.15" stroke="#5FB709" stroke-width="2"/>
</svg>
