<svg width="520" height="509" viewBox="0 0 520 509" fill="none" xmlns="http://www.w3.org/2000/svg">
<path d="M233.786 20.9764L233.811 20.9819L233.836 20.9862C244.641 22.7996 252.772 25.5375 259.852 28.3895C262.484 29.4502 264.999 30.5393 267.462 31.6061C271.572 33.3864 275.539 35.1048 279.675 36.526C293.097 41.1377 308.66 42.7865 339.248 34.9689C353.999 31.1987 369.412 37.7001 384.803 51.119C400.175 64.5217 415.333 84.6656 429.484 107.711C457.778 153.789 481.901 211.224 495.57 248.796C509.2 286.261 512.458 318.619 513.468 350.727C513.748 359.627 513.855 368.517 513.963 377.497C514.244 400.888 514.532 424.882 517.906 451.201C519.046 460.097 517.488 467.339 513.863 473.245C510.229 479.164 504.466 483.828 497.053 487.457C482.198 494.731 460.947 497.738 437.806 498.476C414.695 499.212 389.832 497.681 367.826 495.963C362.363 495.536 357.071 495.097 352.025 494.679C336.784 493.416 323.779 492.337 315.039 492.337C300.026 492.337 278.372 495.267 254.179 498.54C253.244 498.667 252.305 498.794 251.363 498.921C225.995 502.35 197.988 506.053 171.773 507.177C145.534 508.303 121.219 506.836 103.189 500.006C94.1876 496.597 86.8003 491.868 81.5132 485.501C76.235 479.145 73.0008 471.099 72.3917 460.958C70.427 428.25 76.4665 403.02 82.3549 378.421C83.8755 372.069 85.386 365.759 86.746 359.373C93.3601 328.316 96.3238 295.721 79.2778 248.442C83.9342 234.364 82.0091 218.456 76.4568 201.597C70.8585 184.598 61.5285 166.505 51.3334 148.152C48.2294 142.564 45.0463 136.954 41.8615 131.341C34.5677 118.487 27.2649 105.616 20.8825 92.9603C11.7151 74.7825 4.50709 57.1603 2.00003 40.8481C0.770707 32.8496 2.43181 26.4054 6.33363 21.2117C10.2581 15.9878 16.519 11.9376 24.6431 8.90287C40.9071 2.82757 64.2866 0.949449 90.0818 1.57094C141.631 2.81291 202.336 14.0173 233.786 20.9764Z" fill="#E34035" fill-opacity="0.15" stroke="#E34035" stroke-width="2"/>
</svg>
