<svg width="145" height="129" viewBox="0 0 145 129" fill="none" xmlns="http://www.w3.org/2000/svg">
<path d="M143.996 80C143.996 88.6396 139.748 95.9524 132.655 102.106C125.548 108.273 115.641 113.22 104.508 117.071C82.2482 124.772 55.3632 128 36.999 128C27.9363 128 21.2348 125.844 16.2465 122.141C11.2536 118.435 7.87959 113.106 5.60594 106.588C1.03666 93.4883 1 75.882 1 57.8024C1 40.2316 11.5393 26.0562 26.7927 16.2258C42.0495 6.39333 61.9026 1 80.1776 1C98.2079 1 114.147 11.743 125.624 27.0831C137.098 42.4202 143.996 62.2131 143.996 80Z" fill="#E34035" fill-opacity="0.15" stroke="#E34035" stroke-width="2"/>
</svg>
