<svg width="168" height="157" viewBox="0 0 168 157" fill="none" xmlns="http://www.w3.org/2000/svg">
<path d="M111.187 5.02776L111.387 5.03687L111.574 4.96873C121.474 1.37373 129.811 1.11748 136.751 3.42206C143.691 5.72636 149.359 10.632 153.845 17.5916C162.846 31.5554 166.974 53.6178 166.974 78.6126C166.974 85.5689 164.67 88.8561 161.875 92.8445C161.287 93.6843 160.676 94.5552 160.061 95.498C156.477 100.99 153.136 108.457 153.781 125.266C154.092 133.371 151.951 139.574 148.411 144.193C144.863 148.823 139.855 151.931 134.332 153.736C128.806 155.543 122.798 156.033 117.315 155.452C111.82 154.87 106.934 153.222 103.607 150.831C98.3232 147.032 94.5559 142.6 91.294 138.151C90.1726 136.621 89.098 135.069 88.0368 133.537C86.0489 130.666 84.108 127.863 81.9935 125.401C78.7 121.566 74.8674 118.396 69.4638 116.677C64.0774 114.964 57.234 114.725 47.967 116.55C39.236 118.27 30.7541 114.492 23.4135 107.565C16.0769 100.642 10.0038 90.6762 6.17302 80.365C2.33724 70.0403 0.798003 59.5018 2.3829 51.4403C3.1732 47.4204 4.72874 44.0706 7.10612 41.6493C9.47038 39.2413 12.713 37.6836 17.0197 37.3454C33.9068 36.0191 44.113 33.1258 50.9661 29.5175C57.4347 26.1117 60.8512 22.0963 64.0052 18.3896C64.2042 18.1557 64.4021 17.923 64.5997 17.6918C67.9018 13.8287 71.122 10.3462 77.6457 7.96411C84.2295 5.5601 94.2529 4.25299 111.187 5.02776Z" fill="#E68336" fill-opacity="0.15" stroke="#E68336" stroke-width="2"/>
</svg>
