<svg width="189" height="51" viewBox="0 0 189 51" fill="none" xmlns="http://www.w3.org/2000/svg">
<path fill-rule="evenodd" clip-rule="evenodd" d="M100 16.3625V16.314C100 11.6773 103.574 7.74763 108.601 7.74763C111.102 7.74763 112.769 8.33982 114.293 9.42888C114.58 9.64216 114.889 10.0437 114.889 10.6117C114.889 11.3929 114.247 12.0554 113.437 12.0554C113.056 12.0554 112.77 11.8906 112.531 11.7234C111.459 10.9437 110.292 10.4218 108.481 10.4218C105.409 10.4218 103.073 13.0968 103.073 16.2672V16.314C103.073 19.7226 105.337 22.2304 108.743 22.2304C110.316 22.2304 111.745 21.7336 112.77 20.9765V17.8773H109.482C108.767 17.8773 108.172 17.332 108.172 16.6226C108.172 15.9125 108.767 15.3445 109.482 15.3445H114.128C114.961 15.3445 115.605 15.9828 115.605 16.8125V21.2367C115.605 22.0648 115.272 22.657 114.58 23.0828C113.15 24.0297 111.149 24.8812 108.649 24.8812C103.43 24.8812 100 21.1898 100 16.3625ZM118.231 8.62419C118.229 8.43768 118.265 8.25266 118.336 8.07991C118.407 7.90715 118.512 7.75011 118.645 7.61793C118.778 7.48575 118.936 7.38107 119.111 7.30999C119.285 7.2389 119.472 7.20283 119.66 7.20388C120.47 7.20388 121.114 7.84294 121.114 8.62419V23.2961C121.114 24.1008 120.47 24.7156 119.661 24.7156C119.473 24.7167 119.286 24.6808 119.111 24.6098C118.937 24.5388 118.779 24.4342 118.646 24.3021C118.513 24.17 118.408 24.013 118.336 23.8403C118.265 23.6676 118.23 23.4826 118.231 23.2961V8.62419ZM133.876 18.4211V18.3742C133.876 16.1726 132.281 14.3508 130.017 14.3508C127.707 14.3508 126.229 16.1492 126.229 18.3265V18.3734C126.229 20.5508 127.826 22.3726 130.065 22.3726C132.399 22.3726 133.876 20.5742 133.876 18.4211ZM123.347 18.4211V18.3742C123.347 14.8 126.205 11.8422 130.066 11.8422C133.924 11.8422 136.759 14.7523 136.759 18.3265V18.3734C136.759 21.9234 133.901 24.8812 130.017 24.8812C126.181 24.8812 123.347 21.9711 123.347 18.4211ZM143.956 24.8343H143.814C143.027 24.8343 142.503 24.3367 142.17 23.5789L137.978 14.0429C137.905 13.8297 137.81 13.5937 137.81 13.3336C137.81 12.6226 138.454 11.9609 139.239 11.9609C140.026 11.9609 140.431 12.4093 140.669 13.0023L143.909 21.2836L147.196 12.9554C147.41 12.4586 147.792 11.9609 148.554 11.9609C149.341 11.9609 149.959 12.5523 149.959 13.3336C149.959 13.5937 149.865 13.8781 149.794 14.0195L145.6 23.5781C145.266 24.3125 144.742 24.8336 143.956 24.8336L143.956 24.8343ZM161.54 18.4211V18.3742C161.54 16.1726 159.946 14.3508 157.681 14.3508C155.371 14.3508 153.893 16.1492 153.893 18.3265V18.3734C153.893 20.5508 155.49 22.3726 157.73 22.3726C160.063 22.3726 161.54 20.5742 161.54 18.4211ZM151.011 18.4211V18.3742C151.011 14.8 153.87 11.8422 157.729 11.8422C161.588 11.8422 164.423 14.7523 164.423 18.3265V18.3734C164.423 21.9234 161.566 24.8812 157.681 24.8812C153.846 24.8812 151.011 21.9711 151.011 18.4211Z" fill="white"/>
<mask id="mask0" mask-type="alpha" maskUnits="userSpaceOnUse" x="163" y="0" width="12" height="15">
<path d="M163.585 0.5H174.905V14.3227H163.584V0.5H163.585Z" fill="white"/>
</mask>
<g mask="url(#mask0)">
<path fill-rule="evenodd" clip-rule="evenodd" d="M171.576 7.78184L171.418 8.00059L169.246 11.0451L167.077 8.00605L166.918 7.78574C166.609 7.36066 166.424 6.85933 166.383 6.33687C166.343 5.8144 166.449 5.29102 166.689 4.82425C166.93 4.35749 167.296 3.96539 167.747 3.69108C168.198 3.41676 168.717 3.27083 169.246 3.26934C169.775 3.27176 170.293 3.41807 170.743 3.69225C171.194 3.96643 171.559 4.35792 171.799 4.82385C172.04 5.28978 172.146 5.81221 172.107 6.33393C172.067 6.85565 171.883 7.35657 171.575 7.78184H171.576ZM169.247 0.499023C166.124 0.499023 163.586 3.02246 163.586 6.12324C163.586 7.30371 163.955 8.4373 164.653 9.40059L164.803 9.6084L167.751 13.7396C167.751 13.7396 168.11 14.3232 168.894 14.3232H169.599C170.384 14.3232 170.742 13.7396 170.742 13.7396L173.688 9.60762L173.838 9.3998C174.533 8.44572 174.907 7.29884 174.905 6.12246C174.905 3.02168 172.366 0.499023 169.245 0.499023" fill="#F2CC38"/>
</g>
<path fill-rule="evenodd" clip-rule="evenodd" d="M167.652 16.8594V16.8484C167.652 16.0078 168.324 15.3125 169.231 15.3125C170.139 15.3125 170.806 15.9969 170.806 16.8375V16.8484C170.806 17.682 170.133 18.3773 169.22 18.3773C168.32 18.3773 167.652 17.6937 167.652 16.8594Z" fill="#F2CC38"/>
<g clip-path="url(#clip0)">
<path d="M89.7204 23.9362C92.9249 23.9362 94.7561 22.3974 94.7561 20.3462C94.7561 18.8718 93.7098 17.7818 91.4209 17.2693L89.0669 16.8205C87.6936 16.5643 87.2358 16.308 87.2358 15.7949C87.2358 15.1537 87.8893 14.7693 89.132 14.7693C90.4396 14.7693 91.4209 15.0899 91.748 16.3074H94.5597C94.429 14.0637 92.7286 12.5262 89.3283 12.5262C86.3852 12.5262 84.3584 13.6793 84.3584 15.9874C84.3584 17.5899 85.4703 18.6155 87.8893 19.128L90.571 19.7049C91.6172 19.8974 91.8787 20.1537 91.8787 20.6024C91.8787 21.3074 91.0938 21.6924 89.7861 21.6924C88.1513 21.6924 87.2358 21.3718 86.9087 20.1537H84.097C84.4891 22.4612 86.1895 23.9362 89.7204 23.9362ZM83.2464 23.6799H80.2383C78.3421 23.6799 77.2958 22.5255 77.2958 21.0512V15.2824H75.2033V12.8455H77.3615V9.76929H80.1733V12.8462H83.3121V15.2818H80.1733V20.3462C80.1733 20.923 80.5654 21.1793 81.2195 21.1793H83.3121V23.6793H83.2464V23.6799ZM71.2146 18.2305C71.2146 16.3718 69.7105 14.8974 67.8794 14.8974C66.0482 14.8974 64.5442 16.3718 64.5442 18.2305C64.5442 20.0899 66.0482 21.5643 67.8794 21.5643C69.7105 21.5643 71.2146 20.0893 71.2146 18.2305ZM61.7324 18.2305C61.7324 15.0899 64.3484 12.5255 67.618 12.5255C68.9256 12.5255 70.1683 12.9743 71.1489 13.8074V12.8462H73.9606V23.6793H71.1489V22.7187C70.1687 23.5503 68.9143 24.0055 67.618 23.9999C64.3484 23.9362 61.7331 21.3718 61.7331 18.2312L61.7324 18.2305Z" fill="#5FB709"/>
<path d="M43.8129 14.8331C42.3745 14.8331 41.3939 15.9231 41.3939 17.5894V23.6794H39.2356V12.9744H41.3939V14.2562C41.9167 13.4231 42.8322 12.8462 43.9442 12.8462H44.7284V14.8337H43.8129V14.8331ZM28.9693 17.3331H35.5734C35.2469 15.7306 33.8736 14.5769 32.2388 14.5769C30.6691 14.5769 29.3614 15.7306 28.9693 17.3331ZM32.3038 12.7181C35.4426 12.7181 37.7316 15.09 37.7316 18.295V19H28.8379C29.165 20.7312 30.604 22.0769 32.4345 22.0769C33.6778 22.0769 34.7891 21.5644 35.5734 20.5381L37.1431 21.6925C36.0311 23.1025 34.3964 24 32.4345 24C29.165 24 26.6147 21.5638 26.6147 18.4231C26.7454 15.2819 29.165 12.7181 32.3038 12.7181ZM19.7485 22.0125C20.7542 22.0118 21.7184 21.62 22.4296 20.923C23.1408 20.226 23.5407 19.2808 23.5415 18.295C23.5415 16.1794 21.8411 14.5769 19.7485 14.5769C17.721 14.5769 16.0212 16.1794 16.0212 18.295C16.0212 20.3462 17.7216 22.0125 19.7485 22.0125ZM13.9287 9H16.0869V14.3206C17.0675 13.3587 18.4408 12.7181 19.9443 12.7181C23.1488 12.7181 25.6991 15.2181 25.6991 18.295C25.6991 21.3719 23.2144 23.8719 19.9449 23.8719C18.4402 23.8719 17.0675 23.2306 16.0212 22.2694V23.615H13.863V9H13.9287ZM6.01624 21.9488C8.10879 21.9488 9.67789 20.41 9.67789 18.0381V9H11.9011V23.6794H9.67852V22.2694C8.63289 23.2944 7.25889 23.8719 5.6898 23.8719C2.48466 23.8719 0 21.5638 0 18.1025V9H2.22325V18.0381C2.35396 20.41 3.92369 21.9488 6.01624 21.9488Z" fill="white"/>
<path d="M50.0918 9H60.6196V11.4356H52.9035V15.09H60.4232V17.4613H52.9042V21.1794H60.6202V23.6794H50.0918V9Z" fill="#5FB709"/>
</g>
<g clip-path="url(#clip1)">
<path d="M71.3009 46.1369C71.3694 46.1369 71.4379 46.0684 71.5749 46.0684C71.7119 46.0684 71.8489 46.0684 71.9858 46.0684C72.1228 46.0684 72.2598 46.0684 72.3968 46.0684C72.5338 46.0684 72.6023 46.1369 72.6708 46.2054C72.7393 46.2739 72.8078 46.3424 72.8763 46.4108C72.9448 46.4793 72.9448 46.6163 72.9448 46.8218V48.9451C72.9448 49.2191 73.0132 49.4245 73.1502 49.493C73.2872 49.63 73.4927 49.63 73.6982 49.63C73.8352 49.63 73.9721 49.63 74.0406 49.5615C74.1091 49.5615 74.1776 49.493 74.2461 49.493V46.0684C74.3146 46.0684 74.3831 45.9999 74.5201 45.9999C74.6571 45.9999 74.7941 45.9999 74.9311 45.9999C75.068 45.9999 75.205 45.9999 75.342 45.9999C75.479 45.9999 75.5475 46.0684 75.616 46.1369C75.6845 46.2054 75.753 46.2739 75.8215 46.3424C75.89 46.4108 75.89 46.5478 75.89 46.7533V49.6985C75.89 50.041 75.753 50.2465 75.479 50.4519C75.2735 50.5889 74.9995 50.7259 74.6571 50.7944C74.3146 50.8629 73.9721 50.9314 73.6297 50.9314C73.2872 50.9314 72.9447 50.8629 72.6708 50.7944C72.3968 50.7259 72.1228 50.5889 71.9174 50.4519C71.7119 50.315 71.5064 50.1095 71.4379 49.8355C71.3009 49.5615 71.2324 49.2876 71.2324 48.8766L71.3009 46.1369ZM79.0406 49.767C79.1776 49.767 79.2461 49.767 79.3831 49.6985C79.5201 49.6985 79.5886 49.63 79.6571 49.63V48.8766L78.9721 48.9451C78.7667 48.9451 78.6297 49.0136 78.4927 49.0821C78.3557 49.1506 78.2872 49.2191 78.2872 49.3561C78.2872 49.493 78.3557 49.5615 78.4242 49.6985C78.6297 49.6985 78.7667 49.767 79.0406 49.767ZM78.9721 45.9314C79.3146 45.9314 79.6571 45.9999 79.931 46.0684C80.205 46.1369 80.479 46.2739 80.6845 46.4108C80.89 46.5478 81.0269 46.7533 81.1639 46.9588C81.3009 47.1643 81.3009 47.4382 81.3009 47.7807V49.9725C81.3009 50.1095 81.2324 50.2465 81.1639 50.3835C81.0954 50.5204 80.9584 50.5889 80.8215 50.6574C80.4105 50.9314 79.7941 51.0684 79.0406 51.0684C78.6982 51.0684 78.3557 51.0684 78.0817 50.9999C77.8078 50.9314 77.6023 50.8629 77.3968 50.7259C77.1913 50.5889 77.0543 50.4519 76.9174 50.2465C76.7804 50.041 76.7804 49.8355 76.7804 49.5615C76.7804 49.0821 76.9174 48.7396 77.1913 48.5341C77.4653 48.2602 77.8763 48.1232 78.4242 48.0547L79.7256 47.9177V47.8492C79.7256 47.6437 79.6571 47.5067 79.4516 47.4382C79.3146 47.3698 79.0406 47.3013 78.7667 47.3013C78.4927 47.3013 78.2872 47.3013 78.0132 47.3698C77.8078 47.4382 77.5338 47.5067 77.3968 47.5752C77.3283 47.5067 77.2598 47.4382 77.1913 47.3013C77.1228 47.1643 77.1228 47.0273 77.1228 46.9588C77.1228 46.8218 77.1913 46.6848 77.2598 46.5478C77.3283 46.4793 77.4653 46.3424 77.6023 46.2739C77.8078 46.2054 78.0132 46.1369 78.2872 46.1369C78.4927 45.9314 78.6982 45.9314 78.9721 45.9314Z" fill="#E91C4D"/>
<path d="M69.041 49.9726C69.041 49.6986 69.1095 49.4931 69.315 49.2876C69.452 49.0822 69.7259 49.0137 69.9999 49.0137C70.2739 49.0137 70.4794 49.0822 70.6848 49.2876C70.8218 49.4931 70.9588 49.6986 70.9588 49.9726C70.9588 50.2465 70.8903 50.452 70.6848 50.6575C70.5479 50.863 70.2739 50.9315 69.9999 50.9315C69.7259 50.9315 69.5205 50.863 69.315 50.6575C69.1095 50.452 69.041 50.2465 69.041 49.9726Z" fill="#E91C4D"/>
<path d="M37.0546 44.9725C36.8491 45.1095 36.6437 45.2465 36.4382 45.3835C35.8902 45.726 35.2738 45.9999 34.6573 46.2054C34.2464 46.3424 33.8354 46.4794 33.493 46.5479C32.1916 46.8904 30.7532 46.8904 29.6573 46.4109C27.6026 45.5205 26.9861 42.7123 28.0135 40.863C28.4245 40.178 29.0409 39.6301 29.9313 39.2876C31.1642 38.7397 32.8765 38.8767 33.7669 39.904C33.9724 40.1095 34.1094 40.3835 34.1779 40.726V40.863L30.2738 41.7534C30.0683 41.8219 29.7943 41.8904 29.5889 42.0273C29.4519 42.0958 29.3834 42.2328 29.3149 42.4383C29.2464 42.5753 29.2464 42.7808 29.3149 42.9177C29.3834 43.1232 29.4519 43.3972 29.5204 43.6027C29.5889 43.8767 29.7258 44.0821 29.8628 44.3561C29.9313 44.4931 29.9998 44.6986 30.1368 44.8356L34.8628 43.6712L36.1642 43.3287C36.7806 43.1917 37.2601 42.9177 37.6026 42.4383C38.0135 41.8904 38.082 41.1369 38.0135 40.5205C37.8765 39.6986 37.5341 38.9451 37.0546 38.3287C35.6163 36.4794 33.2875 35.9314 31.0957 36.1369C30.1368 36.2054 29.1094 36.4794 28.219 36.8219C27.3286 37.1643 26.4382 37.6438 25.6847 38.2602C24.9313 38.8767 24.3149 39.6986 23.9039 40.589C23.082 42.2328 22.945 44.1506 23.63 45.9314C24.1094 47.2328 24.9998 48.2602 26.0957 49.0821C26.1642 49.0136 26.1642 49.0136 26.2327 48.9451C26.5067 48.6027 26.9176 48.3972 27.3971 48.3972C27.4656 48.3972 27.5341 48.3972 27.6026 48.3972C27.945 48.3972 28.2875 48.5342 28.5615 48.7397C28.8354 48.9451 28.9724 49.2876 29.0409 49.6301C29.0409 49.6986 29.0409 49.7671 29.0409 49.8356C29.0409 49.9725 29.0409 50.1095 28.9724 50.2465C29.1779 50.2465 29.3149 50.315 29.5204 50.315C30.1368 50.3835 30.8902 50.3835 31.7121 50.315C31.7121 50.178 31.6437 50.1095 31.6437 49.9725C31.6437 49.904 31.6437 49.8356 31.6437 49.6986C31.6437 49.1506 31.9176 48.6712 32.2601 48.2602C32.6026 47.8493 33.1505 47.5753 33.6984 47.5753C33.7669 47.5753 33.9039 47.5753 33.9724 47.5753C34.4519 47.5753 34.8628 47.7808 35.1368 48.0547C35.4108 48.3287 35.6163 48.7397 35.6847 49.1506C35.6847 49.2191 35.6847 49.2876 35.6847 49.4246V49.4931C35.7532 49.4931 35.8217 49.4246 35.8902 49.4246C36.7806 49.0821 37.6026 48.3972 37.8765 47.4383C37.7395 46.4109 37.5341 45.6575 37.0546 44.9725Z" fill="#E91C4D"/>
<path d="M26.0956 49.904C26.0956 49.2875 26.6436 48.7396 27.26 48.6711C27.8765 48.6026 28.3559 49.0821 28.3559 49.63C28.3559 50.2464 27.808 50.7944 27.1915 50.8629C26.5751 50.9314 26.0272 50.5204 26.0956 49.904Z" fill="#E91C4D"/>
<path d="M31.9168 49.5617C31.9168 48.7398 32.6018 47.9864 33.4237 47.9179C34.2456 47.8494 34.9305 48.3973 34.862 49.2192C34.862 50.0412 34.1771 50.7946 33.3552 50.8631C32.5333 50.9316 31.8483 50.3836 31.9168 49.5617Z" fill="#E91C4D"/>
<path d="M4.17808 50.6575L5.27397 40.863L5.34247 40.7945C5.54795 40.6575 5.75342 40.589 6.0274 40.5205C6.30137 40.3835 6.64384 40.3835 6.9863 40.3835C7.46575 40.3835 7.94521 40.5205 8.28767 40.7945C8.69863 41.1369 8.76712 41.6849 8.76712 42.1643L8.0137 48.8767C7.94521 49.2191 7.94521 49.6301 8.08219 49.9041C8.15069 50.1095 8.28767 50.315 8.49315 50.5205C8.69863 50.6575 8.9726 50.7945 9.17808 50.7945C9.52055 50.863 9.86301 50.863 10.274 50.863C10.6849 50.863 11.0959 50.863 11.5068 50.7945C11.7808 50.726 12.0548 50.726 12.2603 50.6575L13.2877 41.2739C13.2877 41.2054 13.2877 41.1369 13.2877 41.1369V40.9999L13.3562 40.9315C13.5616 40.726 13.8356 40.6575 14.1096 40.5205C14.3836 40.3835 14.726 40.315 15.0685 40.315C15.5479 40.315 16.0274 40.3835 16.4384 40.726C16.8493 41.0684 16.9178 41.6164 16.8493 42.0958L16.0959 48.8082C16.0274 49.1506 16.0274 49.5616 16.1644 49.8356C16.2329 50.041 16.3699 50.2465 16.5753 50.452C16.7808 50.589 17.0548 50.726 17.2603 50.726C17.6027 50.7945 17.9452 50.7945 18.3562 50.7945C18.7671 50.7945 19.1781 50.7945 19.589 50.726C19.863 50.726 20.0685 50.6575 20.3425 50.589L21.3014 41.8904C21.2329 41.2054 21.2329 40.3835 20.9589 39.6986C20.7534 39.0821 20.411 38.6027 19.9315 38.1917C19.4521 37.7808 18.9041 37.5068 18.2877 37.3698C17.6027 37.1643 16.9863 37.0958 16.3014 37.0958C15.4795 37.0958 14.589 37.1643 13.7671 37.4383C13.0822 37.6438 12.3973 37.9862 11.8493 38.3287L11.6438 38.3972L11.5068 38.3287C11.0274 37.9178 10.411 37.5753 9.79452 37.3698C9.10959 37.1643 8.35616 37.0273 7.60274 37.0273C6.57534 37.0273 5.61644 37.1643 4.65753 37.4383C3.83562 37.7123 3.0137 38.0547 2.26027 38.5342C1.91781 38.7397 1.57534 39.0136 1.36986 39.2876C1.09589 39.6301 1.0274 39.9725 0.958904 40.3835L0 48.8767C0 49.2191 0 49.6301 0.0684932 49.9041C0.136986 50.1095 0.273973 50.315 0.479452 50.5205C0.684932 50.6575 0.958904 50.7945 1.16438 50.7945C1.50685 50.863 1.84932 50.863 2.26027 50.863C2.67123 50.863 3.08219 50.863 3.49315 50.7945C3.69863 50.7945 3.9726 50.726 4.17808 50.6575Z" fill="#E91C4D"/>
<path d="M52.0544 50.6574L53.0133 42.0272C53.1503 40.5889 52.8763 39.2875 51.7804 38.3286C50.5475 37.2327 48.7667 36.9587 47.1914 36.9587C46.0955 36.9587 44.9996 37.0957 43.9722 37.3697C43.1503 37.6437 42.2599 37.9176 41.5064 38.4656C41.164 38.6711 40.8215 38.945 40.5475 39.2875C40.2736 39.63 40.2051 40.0409 40.1366 40.4519L39.2462 48.8765C39.1777 49.219 39.1777 49.63 39.3147 49.9039C39.3831 50.1094 39.5201 50.3149 39.7256 50.5204C39.9311 50.6574 40.2051 50.7944 40.4105 50.7944C40.753 50.8629 41.0955 50.8629 41.5064 50.8629C41.9174 50.8629 42.3284 50.8629 42.7393 50.7944C43.0133 50.7944 43.2188 50.7259 43.4927 50.6574L44.5201 40.9998C44.8626 40.7944 45.2051 40.6574 45.5475 40.5204C45.9585 40.4519 46.301 40.3834 46.7119 40.3834C47.1914 40.3834 47.7393 40.5204 48.1503 40.8628C48.5612 41.2053 48.6297 41.7533 48.5612 42.3012L47.8763 48.8765C47.8078 49.219 47.8078 49.63 47.9448 49.9039C48.0133 50.1094 48.1503 50.3149 48.3557 50.5204C48.5612 50.6574 48.8352 50.7944 49.0407 50.7944C49.3831 50.8629 49.7256 50.8629 50.1366 50.8629C50.5475 50.8629 50.9585 50.8629 51.3694 50.7944C51.5064 50.7944 51.7804 50.7259 52.0544 50.6574Z" fill="#E91C4D"/>
<path d="M55.5475 37.3699L54.7256 45.2466C54.6571 46.0685 54.6571 47.0274 54.931 47.8493C55.1365 48.5343 55.5475 49.0822 56.0954 49.5617C56.7119 50.0411 57.3968 50.3836 58.0817 50.5891C58.9721 50.7946 59.8625 50.9315 60.7529 50.9315C61.7118 50.9315 62.7392 50.863 63.6981 50.5891C64.5201 50.3836 65.342 50.1096 66.0954 49.6987C66.8488 49.2877 67.3283 48.6028 67.3968 47.7124L68.2872 39.2192C68.3557 38.8767 68.3557 38.4658 68.2187 38.1918C68.1502 37.9863 68.0132 37.7809 67.8077 37.5754C67.6023 37.4384 67.3283 37.3014 67.1228 37.3014C66.7803 37.2329 66.4379 37.2329 66.0269 37.2329C65.616 37.2329 65.205 37.2329 64.794 37.3014C64.5201 37.3014 64.3146 37.3699 64.0406 37.4384L63.0132 47.2329C62.8077 47.3014 62.5338 47.4384 62.3283 47.4384C61.9858 47.5069 61.5749 47.5754 61.2324 47.5754C60.616 47.5754 59.9995 47.4384 59.5201 47.0274C59.0406 46.548 59.0406 45.863 59.1091 45.2466L59.7255 39.2192C59.794 38.8767 59.794 38.4658 59.6571 38.1918C59.5886 37.9863 59.4516 37.7809 59.2461 37.5754C59.0406 37.4384 58.7666 37.3014 58.5612 37.3014C58.2187 37.2329 57.8762 37.2329 57.4653 37.2329C57.0543 37.2329 56.6434 37.2329 56.2324 37.3014C56.0954 37.3014 55.8214 37.3014 55.5475 37.3699Z" fill="#E91C4D"/>
</g>
<g clip-path="url(#clip2)">
<path d="M128.733 39.9267C128.733 37.5456 126.819 36 123.101 36H117.926L115.816 50.5161H119.774L120.557 45.1692H121.731L123.862 50.5161H128.167L125.406 44.5426C128.146 43.3103 128.733 41.702 128.733 39.9267ZM121.492 38.6944H122.623C123.971 38.6944 124.645 39.133 124.645 40.1564C124.645 41.2843 124.058 42.5375 122.275 42.5375H120.926L121.492 38.6944ZM136.873 50.5161H141.048L138.787 36H134.003L127.501 50.5161H131.633L132.698 47.5502H136.634L136.873 50.5161ZM133.677 44.7932L135.938 38.5064L136.438 44.7932H133.677ZM141.808 50.5161H145.788L147.897 36H143.918L141.808 50.5161ZM150.332 50.5161H154.833L151.093 42.6837L156.551 36H152.376L147.027 42.7881L150.332 50.5161ZM167.18 36H157.721L155.611 50.5161H165.005L165.396 47.78H159.982L160.46 44.4799H164.896L165.266 41.8065H160.83L161.287 38.7361H166.353L167.18 36ZM179.48 36H167.868L167.455 38.945H171.173L169.477 50.5161H173.435L175.131 38.945H178.632L179.48 36ZM184.706 50.5161H188.881L186.619 36H181.836L175.334 50.5161H179.465L180.531 47.5502H184.467L184.706 50.5161ZM181.509 44.7932L183.771 38.5064L184.271 44.7932H181.509Z" fill="white"/>
<path d="M90.1875 36.7499C90.1875 36.3719 90.4913 36.0654 90.866 36.0654H107.677C110.252 36.0654 112.43 37.7385 112.43 40.3407C112.43 42.2332 111.259 44.1257 109.386 44.8354L112.206 50.7477H106.574L104.469 45.5451V50.7477C102.362 50.7477 100.314 50.7482 98.2652 50.7486L97.524 50.7488C95.789 50.7492 94.2409 50.7495 92.3927 50.7495C92.3793 50.7495 92.3662 50.7489 92.3534 50.7477H92.2231C91.8484 50.7477 91.5446 50.4412 91.5446 50.0632C91.5446 49.6852 91.8484 49.3787 92.2231 49.3787H103.065V45.7817C103.065 44.1257 105.172 43.6526 105.874 45.3085L107.677 49.3787H109.797L108.215 45.7817C108.015 45.355 107.863 44.853 108.015 44.4352C108.161 44.0342 108.547 43.8396 108.902 43.6606L108.918 43.6526C110.088 43.1795 111.025 41.9967 111.025 40.5773C111.025 38.6848 109.62 37.4344 107.747 37.4344H90.866C90.4913 37.4344 90.1875 37.128 90.1875 36.7499Z" fill="white"/>
<path d="M91.937 39.3047C91.5673 39.3047 91.2676 39.6431 91.2676 40.0605C91.2676 40.4779 91.5673 40.8163 91.937 40.8163H97.2923C97.6621 40.8163 97.9618 40.4779 97.9618 40.0605C97.9618 39.6431 97.6621 39.3047 97.2923 39.3047H91.937Z" fill="white"/>
<path d="M86.3008 43.2995C86.3008 42.882 86.5975 42.5437 86.9634 42.5437H93.628C93.994 42.5437 94.2906 42.882 94.2906 43.2995C94.2906 43.7169 93.994 44.0553 93.628 44.0553H86.9634C86.5975 44.0553 86.3008 43.7169 86.3008 43.2995Z" fill="white"/>
<path d="M95.8182 42.5437C95.4515 42.5437 95.1543 42.882 95.1543 43.2995C95.1543 43.7169 95.4515 44.0553 95.8182 44.0553H100.969C101.335 44.0553 101.633 43.7169 101.633 43.2995C101.633 42.882 101.335 42.5437 100.969 42.5437H95.8182Z" fill="white"/>
<path d="M88.8926 46.5388C88.8926 46.1213 89.1999 45.783 89.579 45.783H98.5713C98.9505 45.783 99.2578 46.1213 99.2578 46.5388C99.2578 46.9562 98.9505 47.2946 98.5713 47.2946H89.579C89.1999 47.2946 88.8926 46.9562 88.8926 46.5388Z" fill="white"/>
<path d="M99.2578 40.0605C99.2578 39.6431 99.5585 39.3047 99.9294 39.3047H101.178C101.548 39.3047 101.849 39.6431 101.849 40.0605C101.849 40.4779 101.548 40.8163 101.178 40.8163H99.9294C99.5585 40.8163 99.2578 40.4779 99.2578 40.0605Z" fill="white"/>
<path d="M102.767 39.3047C102.379 39.3047 102.064 39.6431 102.064 40.0605C102.064 40.4779 102.379 40.8163 102.767 40.8163H106.976C107.364 40.8163 107.679 40.4779 107.679 40.0605C107.679 39.6431 107.364 39.3047 106.976 39.3047H102.767Z" fill="white"/>
</g>
<defs>
<clipPath id="clip0">
<rect y="9" width="95" height="15" fill="white"/>
</clipPath>
<clipPath id="clip1">
<rect y="36" width="81.3014" height="15" fill="white"/>
</clipPath>
<clipPath id="clip2">
<rect x="86.3008" y="36" width="102.581" height="15" fill="white"/>
</clipPath>
</defs>
</svg>
