<svg width="11" height="15" viewBox="0 0 11 15" fill="none" xmlns="http://www.w3.org/2000/svg">
<path d="M5.50079 0C2.50533 0 0.0683594 2.43697 0.0683594 5.4324C0.0683594 9.14983 4.92985 14.6072 5.13684 14.8377C5.33125 15.0543 5.67068 15.0539 5.86475 14.8377C6.07173 14.6072 10.9332 9.14983 10.9332 5.4324C10.9332 2.43697 8.49622 0 5.50079 0ZM5.50079 8.1656C3.9937 8.1656 2.76763 6.93949 2.76763 5.4324C2.76763 3.92531 3.99373 2.69924 5.50079 2.69924C7.00785 2.69924 8.23393 3.92534 8.23393 5.43243C8.23393 6.93952 7.00785 8.1656 5.50079 8.1656Z" fill="#E5E5E5"/>
</svg>
