<svg width="15" height="15" viewBox="0 0 15 15" fill="none" xmlns="http://www.w3.org/2000/svg">
<path d="M14.6637 11.8545L12.3472 9.53776C11.8858 9.07821 11.1217 9.09217 10.6442 9.56982L9.47714 10.7366C9.40341 10.696 9.32709 10.6535 9.24685 10.6085C8.50986 10.2002 7.50116 9.64045 6.43971 8.57823C5.37512 7.51377 4.8149 6.50352 4.40529 5.76605C4.36207 5.68792 4.32065 5.61259 4.27976 5.54106L5.06303 4.75895L5.44812 4.37338C5.92633 3.89504 5.93952 3.13116 5.47919 2.67027L3.16268 0.35324C2.70235 -0.107003 1.93791 -0.0930406 1.45969 0.385302L0.806819 1.04192L0.82466 1.05964C0.605743 1.33897 0.422809 1.66114 0.286676 2.00856C0.161186 2.33927 0.083057 2.65484 0.0473321 2.97107C-0.258548 5.50688 0.900247 7.82443 4.04507 10.9693C8.39217 15.3161 11.8954 14.9877 12.0465 14.9717C12.3756 14.9323 12.6911 14.8537 13.0117 14.7292C13.3561 14.5947 13.678 14.412 13.9572 14.1935L13.9714 14.2062L14.6329 13.5586C15.1101 13.0803 15.1238 12.3162 14.6637 11.8545Z" fill="#E5E5E5"/>
</svg>
