<svg width="20" height="20" viewBox="0 0 20 20" fill="none" xmlns="http://www.w3.org/2000/svg">
<g clip-path="url(#clip0)">
<path d="M19.2964 11.5775C19.8931 6.55501 19.0097 3.38417 17.4164 1.95001L17.4172 1.94917C14.8456 -0.499995 6.16055 -0.862495 3.08389 2.05917C1.70222 3.48834 1.21555 5.58584 1.16222 8.18251C1.10889 10.78 1.04555 15.6458 5.57972 16.9658H5.58389L5.57972 18.9817C5.57972 18.9817 5.54889 19.7984 6.07055 19.9625C6.66722 20.1559 6.93722 19.7767 8.79305 17.56C11.8964 17.8292 14.2797 17.2125 14.5506 17.1225C15.1772 16.9125 18.7231 16.4433 19.2964 11.5775ZM9.09889 16.1417C9.09889 16.1417 7.13472 18.5909 6.52389 19.2267C6.32389 19.4334 6.10472 19.4142 6.10805 19.0042C6.10805 18.735 6.12305 15.6575 6.12305 15.6575C2.27889 14.5558 2.50555 10.4125 2.54722 8.24501C2.58889 6.07668 2.98555 4.30084 4.15555 3.10501C6.85472 0.574172 14.4689 1.14001 16.4089 2.96334C18.7806 5.06584 17.9364 11.0058 17.9414 11.2083C17.4539 15.27 14.5806 15.5275 14.0522 15.7033C13.8264 15.7783 11.7306 16.3175 9.09889 16.1417Z" fill="white"/>
<path d="M10.184 3.58083C9.86315 3.58083 9.86315 4.08083 10.184 4.085C12.6732 4.10417 14.7232 5.83917 14.7457 9.02167C14.7457 9.3575 15.2373 9.35333 15.2332 9.0175H15.2323C15.2057 5.58833 12.9673 3.6 10.184 3.58083Z" fill="white"/>
<path d="M13.4595 8.49417C13.452 8.82584 13.9428 8.84167 13.947 8.50584C13.9878 6.615 12.8219 5.0575 10.6311 4.89333C10.3103 4.87 10.2769 5.37417 10.5969 5.3975C12.4969 5.54167 13.4978 6.83834 13.4595 8.49417Z" fill="white"/>
<path d="M12.9345 10.645C12.5228 10.4067 12.1037 10.555 11.9303 10.7892L11.5678 11.2583C11.3837 11.4967 11.0395 11.465 11.0395 11.465C8.52784 10.8008 7.85617 8.1725 7.85617 8.1725C7.85617 8.1725 7.82534 7.81666 8.05534 7.62583L8.50867 7.25083C8.73534 7.07083 8.87867 6.6375 8.64784 6.21166C8.03117 5.0975 7.617 4.71333 7.40617 4.41833C7.1845 4.14083 6.85117 4.07833 6.50451 4.26583H6.49701C5.77617 4.6875 4.98701 5.47666 5.23951 6.28916C5.67034 7.14583 6.46201 9.87666 8.98534 11.94C10.1712 12.9158 12.0478 13.9158 12.8445 14.1467L12.852 14.1583C13.637 14.42 14.4003 13.6 14.8078 12.8575V12.8517C14.9887 12.4925 14.9287 12.1525 14.6645 11.93C14.1962 11.4733 13.4895 10.9692 12.9345 10.645Z" fill="white"/>
<path d="M10.9731 6.75334C11.774 6.8 12.1623 7.21834 12.204 8.07751C12.219 8.41334 12.7065 8.39001 12.6915 8.05417C12.6382 6.9325 12.0532 6.3075 10.9998 6.24917C10.679 6.23 10.649 6.73417 10.9731 6.75334Z" fill="white"/>
</g>
<defs>
<clipPath id="clip0">
<rect width="20" height="20" fill="white"/>
</clipPath>
</defs>
</svg>
