<svg width="10" height="6" viewBox="0 0 10 6" fill="none" xmlns="http://www.w3.org/2000/svg">
<path d="M9.90008 0.685243L9.39911 0.184311C9.33236 0.117418 9.25546 0.0840759 9.16853 0.0840759C9.08181 0.0840759 9.00494 0.117418 8.93819 0.184311L5.00005 4.12224L1.06209 0.184417C0.995301 0.117523 0.918439 0.0841812 0.831611 0.0841812C0.744747 0.0841812 0.667886 0.117523 0.601132 0.184417L0.100235 0.685384C0.0333416 0.752137 0 0.828998 0 0.915862C0 1.00266 0.0334469 1.07952 0.100235 1.14627L4.76957 5.81571C4.83633 5.8825 4.91322 5.91588 5.00005 5.91588C5.08688 5.91588 5.16364 5.8825 5.23036 5.81571L9.90008 1.14627C9.96683 1.07948 10 1.00262 10 0.915862C10 0.828998 9.96683 0.752137 9.90008 0.685243Z" fill="#E5E5E5"/>
</svg>
